<svg width="76" height="76" viewBox="0 0 76 76" fill="none" xmlns="http://www.w3.org/2000/svg">
<circle cx="38" cy="38" r="38" fill="#E4E4E4"/>
<g clip-path="url(#clip0_125_2)">
<path d="M64.9999 32H63.5599C65.9799 25.48 58.6299 19.48 52.7199 23C51.2088 21.3016 49.111 20.2379 46.8478 20.0227C44.5847 19.8076 42.324 20.4568 40.5199 21.84C40.2044 20.7545 39.74 19.718 39.1399 18.76C40.9999 16 41.6199 15.05 42.9999 15C44.8499 14.93 44.9999 17 46.9999 17C48.9999 17 49.5699 12 50.9999 12C53.9999 12 53.9999 18 55.9999 18C57.9999 18 57.3499 16 58.9999 16C61.9999 16 61.2999 21.22 62.9999 21C64.3399 20.83 63.9999 20 65.9999 20C68.8899 20 69.1299 26.75 64.9999 32Z" fill="url(#paint0_linear_125_2)"/>
<path d="M63.56 32H60C60 30.64 58.29 29.87 56.89 29.67C56.7025 29.2916 56.4372 28.957 56.1115 28.6882C55.7858 28.4194 55.4071 28.2223 55 28.11C54.8112 26.2053 54.0114 24.4127 52.72 23C58.64 19.48 66 25.48 63.56 32Z" fill="url(#paint1_linear_125_2)"/>
<path d="M40.52 32H12C12.0022 31.0955 12.3109 30.2184 12.8757 29.5119C13.4406 28.8054 14.2282 28.3112 15.11 28.11C15.335 27.142 15.9122 26.2924 16.7293 25.7268C17.5464 25.1611 18.5448 24.9198 19.53 25.05C19.7796 24.5944 20.1169 24.1928 20.5224 23.868C20.9278 23.5433 21.3935 23.302 21.8926 23.158C22.3917 23.0139 22.9143 22.97 23.4304 23.0287C23.9466 23.0874 24.446 23.2475 24.9 23.5C25.2751 23.04 25.7479 22.6692 26.2841 22.4146C26.8203 22.1599 27.4064 22.0278 28 22.0278C28.5936 22.0278 29.1797 22.1599 29.7159 22.4146C30.2521 22.6692 30.7249 23.04 31.1 23.5C32.009 22.9924 33.082 22.8653 34.0844 23.1464C35.0869 23.4274 35.9373 24.0938 36.45 25C37.1848 24.9236 37.9267 25.0425 38.6009 25.3444C39.2751 25.6464 39.8577 26.1209 40.29 26.72C40.42 29.49 40.36 28.3 40.52 32Z" fill="url(#paint2_linear_125_2)"/>
<path d="M40.52 35H12C12.0022 34.0955 12.3109 33.2184 12.8757 32.5119C13.4406 31.8054 14.2282 31.3112 15.11 31.11C15.335 30.142 15.9122 29.2924 16.7293 28.7268C17.5464 28.1611 18.5448 27.9198 19.53 28.05C19.7796 27.5944 20.1169 27.1928 20.5224 26.868C20.9278 26.5433 21.3935 26.302 21.8926 26.158C22.3917 26.0139 22.9143 25.97 23.4304 26.0287C23.9466 26.0874 24.446 26.2475 24.9 26.5C25.2751 26.04 25.7479 25.6692 26.2841 25.4146C26.8203 25.1599 27.4064 25.0278 28 25.0278C28.5936 25.0278 29.1797 25.1599 29.7159 25.4146C30.2521 25.6692 30.7249 26.04 31.1 26.5C32.009 25.9924 33.082 25.8653 34.0844 26.1464C35.0869 26.4274 35.9373 27.0938 36.45 28C37.1848 27.9236 37.9267 28.0425 38.6009 28.3444C39.2751 28.6464 39.8577 29.1209 40.29 29.72C40.42 32.49 40.36 31.3 40.52 35Z" fill="#4DA67F"/>
<path d="M40.5199 32H31.86V27.9C31.8514 27.4293 32.0092 26.9706 32.3055 26.6048C32.6018 26.239 33.0177 25.9894 33.4799 25.9C33.9278 25.8102 34.3832 25.7634 34.8399 25.76C35.1699 25.53 36.3599 24.9 36.4699 25.01C37.2011 24.9053 37.9469 25.0083 38.6223 25.3071C39.2978 25.6059 39.8756 26.0886 40.29 26.7C40.42 29.49 40.3599 28.3 40.5199 32Z" fill="#4DA67F"/>
<path d="M60.0001 32H33.8601V27.9C34.4107 27.7978 34.9729 27.7742 35.5301 27.83C36.7201 26.55 39.2601 26.33 40.9001 26.9C41.8273 26.3123 42.9024 26.0002 44.0001 26.0002C45.0978 26.0002 46.173 26.3123 47.1001 26.9C47.9989 26.5751 48.9667 26.49 49.9084 26.6531C50.85 26.8162 51.733 27.2218 52.4701 27.83C54.1201 27.74 56.3401 28.2 56.8901 29.67C58.6701 29.91 60.0001 30.86 60.0001 32Z" fill="url(#paint3_linear_125_2)"/>
<path d="M49 58.83H27V64H49V58.83Z" fill="url(#paint4_linear_125_2)"/>
<path d="M41 60H35C27.5739 60 20.452 57.05 15.201 51.799C9.95 46.548 7.00001 39.4261 7.00001 32C7.00001 31.9 5.40001 32 69 32C69 39.4261 66.05 46.548 60.799 51.799C55.548 57.05 48.4261 60 41 60V60Z" fill="url(#paint5_linear_125_2)"/>
<path d="M69 32C69 39.4261 66.05 46.548 60.799 51.799C55.548 57.05 48.4261 60 41 60H35C27.5739 60 20.452 57.05 15.201 51.799C9.94999 46.548 7 39.4261 7 32H69Z" fill="url(#paint6_linear_125_2)"/>
<path d="M69 33.29C68.6679 40.4902 65.572 47.285 60.3565 52.2602C55.141 57.2354 48.2079 60.0077 41 60H35C27.7921 60.0077 20.8589 57.2354 15.6435 52.2602C10.428 47.285 7.33207 40.4902 7 33.29C7.79 46.49 20 57 35 57H41C56.31 57 68.23 46.21 69 33.29Z" fill="#C7CDD8"/>
<path d="M57.11 29.7H56.89C56.7058 29.316 56.4421 28.9756 56.1162 28.7015C55.7903 28.4273 55.4098 28.2257 55 28.11C54.8112 26.2053 54.0114 24.4127 52.72 23C53.3228 22.6374 53.9768 22.3677 54.66 22.2C56.81 25 56.89 27.39 57.11 29.7Z" fill="#F6B756"/>
<path d="M54.9999 28.11C54.2015 27.8462 53.3571 27.7509 52.5199 27.83C51.7828 27.2218 50.8999 26.8162 49.9582 26.6531C49.0166 26.49 48.0487 26.5751 47.1499 26.9C46.2228 26.3123 45.1477 26.0002 44.0499 26.0002C42.9522 26.0002 41.8771 26.3123 40.9499 26.9C40.7509 26.8315 40.547 26.778 40.3399 26.74C39.7739 25.9117 38.9173 25.3264 37.9399 25.1C38.7916 23.3344 40.1965 21.8952 41.941 21.0011C43.6855 20.1069 45.6742 19.8068 47.6048 20.1463C49.5355 20.4858 51.3025 21.4464 52.6373 22.882C53.9721 24.3176 54.8017 26.1498 54.9999 28.1V28.11Z" fill="url(#paint7_linear_125_2)"/>
<path d="M40.5201 21.87C39.4029 22.7262 38.5021 23.8325 37.8901 25.1C37.4252 24.9861 36.9419 24.9691 36.4701 25.05C36.2205 24.5945 35.8832 24.1928 35.4778 23.8681C35.0723 23.5433 34.6066 23.302 34.1075 23.158C33.6085 23.0139 33.0858 22.97 32.5697 23.0287C32.0535 23.0874 31.5541 23.2475 31.1001 23.5C30.5486 22.8169 29.7877 22.3342 28.9347 22.1264C28.0817 21.9186 27.184 21.9971 26.3801 22.35C24.6901 19.13 25.0001 16.65 25.0001 13H28.7201C31.3823 13.001 33.9722 13.8664 36.1002 15.466C38.2282 17.0656 39.7793 19.313 40.5201 21.87V21.87Z" fill="url(#paint8_linear_125_2)"/>
<path d="M27.5 28.43C27.0252 28.8954 26.6479 29.4509 26.3904 30.0639C26.1328 30.6769 26.0001 31.3351 26 32H19C19.0001 31.0154 19.291 30.0528 19.836 29.2328C20.3811 28.4128 21.1561 27.7721 22.0638 27.3908C22.9716 27.0095 23.9717 26.9048 24.9388 27.0896C25.9059 27.2745 26.7969 27.7408 27.5 28.43V28.43Z" fill="url(#paint9_linear_125_2)"/>
<path d="M36 32H26C26 30.6739 26.5268 29.4021 27.4645 28.4645C28.4021 27.5268 29.6739 27 31 27C32.3261 27 33.5979 27.5268 34.5355 28.4645C35.4732 29.4021 36 30.6739 36 32V32Z" fill="url(#paint10_linear_125_2)"/>
<path d="M26.38 22.35C25.8026 22.6107 25.2953 23.0049 24.9 23.5C24.0352 23.0137 23.0179 22.8744 22.0542 23.1102C21.0905 23.346 20.2525 23.9394 19.71 24.77C18.5519 23.833 17.6178 22.6491 16.9759 21.3048C16.334 19.9604 16.0006 18.4897 16 17C22.34 17 23.19 16.87 25 17.47C25.1119 19.1756 25.5821 20.8384 26.38 22.35Z" fill="url(#paint11_linear_125_2)"/>
<path d="M70 32C70 31.7348 69.8946 31.4804 69.7071 31.2929C69.5196 31.1054 69.2652 31 69 31H66.92C69.87 26.14 70.08 19 66 19C63.91 19 63.66 19.84 63 20C62.37 18.91 62.16 15 59 15C58.5383 14.995 58.0855 15.1274 57.6992 15.3802C57.3128 15.633 57.0103 15.9949 56.83 16.42C55.17 19.38 55.28 11 51 11C49.7 11 49.09 12.35 48.44 13.78C48.12 14.5 47.44 16 47 16C45.66 16 45.26 13.92 43 14C41.39 14.06 40.57 15 39.15 17C34.72 11.53 29.28 12 25 12C24.7348 12 24.4804 12.1054 24.2929 12.2929C24.1054 12.4804 24 12.7348 24 13V16.19C22.6 15.93 22.29 16 16 16C15.7348 16 15.4804 16.1054 15.2929 16.2929C15.1054 16.4804 15 16.7348 15 17C14.997 19.645 15.9567 22.2008 17.7 24.19C16.9261 24.4025 16.2141 24.7964 15.6228 25.3389C15.0315 25.8815 14.5781 26.5572 14.3 27.31C13.4993 27.6029 12.7868 28.0957 12.2302 28.7416C11.6737 29.3874 11.2915 30.1648 11.12 31H7C6.73478 31 6.48043 31.1054 6.29289 31.2929C6.10536 31.4804 6 31.7348 6 32C6.00171 38.1159 7.93692 44.0747 11.529 49.0246C15.1211 53.9744 20.1861 57.662 26 59.56V64C26 64.2652 26.1054 64.5196 26.2929 64.7071C26.4804 64.8946 26.7348 65 27 65H49C49.2652 65 49.5196 64.8946 49.7071 64.7071C49.8946 64.5196 50 64.2652 50 64V59.56C55.8139 57.662 60.8789 53.9744 64.471 49.0246C68.0631 44.0747 69.9983 38.1159 70 32V32ZM60.78 31C60.4528 30.4022 59.9903 29.8892 59.4295 29.502C58.8686 29.1148 58.225 28.8641 57.55 28.77C57.1254 28.1623 56.5403 27.6845 55.86 27.39C55.6327 25.9587 55.097 24.5938 54.29 23.39C55.3909 22.9869 56.5807 22.8905 57.7322 23.1111C58.8836 23.3318 59.9535 23.8611 60.8274 24.6426C61.7014 25.4241 62.3465 26.4284 62.694 27.5482C63.0414 28.6679 63.0781 29.861 62.8 31H60.78ZM20.14 31C20.298 30.3993 20.5938 29.8437 21.0038 29.3772C21.4139 28.9106 21.9269 28.546 22.5023 28.3121C23.0778 28.0783 23.6997 27.9816 24.319 28.0299C24.9382 28.0781 25.5377 28.2699 26.07 28.59C25.5639 29.3103 25.2225 30.133 25.07 31H20.14ZM34.86 31H27.14C27.3703 30.1526 27.873 29.4046 28.5706 28.8713C29.2682 28.3379 30.1219 28.049 31 28.049C31.8781 28.049 32.7318 28.3379 33.4294 28.8713C34.127 29.4046 34.6297 30.1526 34.86 31ZM36.91 31C36.7683 30.1788 36.4585 29.3958 36 28.7C36.0999 28.6521 36.1911 28.5879 36.27 28.51C36.8777 28.0479 37.5914 27.7454 38.346 27.6302C39.1006 27.5149 39.8721 27.5904 40.59 27.85C40.744 27.9016 40.9083 27.9149 41.0685 27.8888C41.2288 27.8626 41.3804 27.7978 41.51 27.7C42.272 27.267 43.1335 27.0393 44.01 27.0393C44.8865 27.0393 45.748 27.267 46.51 27.7C47.18 28.21 47.51 27.6 49.01 27.6C51.71 27.6 51.51 28.87 52.53 28.83H53.01C54.55 28.83 55.74 29.46 56.01 30.05C56.32 30.87 56.94 30.54 58.01 31.05L36.91 31ZM53.7 26.83C53.4102 26.815 53.1198 26.815 52.83 26.83C52.0314 26.2658 51.1186 25.8838 50.1561 25.711C49.1937 25.5382 48.205 25.5788 47.26 25.83C46.258 25.3315 45.1541 25.0721 44.035 25.0721C42.9159 25.0721 41.812 25.3315 40.81 25.83C40.3951 25.3419 39.8933 24.935 39.33 24.63C40.1722 23.3524 41.3632 22.3431 42.7616 21.7219C44.1601 21.1007 45.7074 20.8936 47.22 21.1252C48.7326 21.3568 50.147 22.0173 51.2956 23.0284C52.4441 24.0396 53.2786 25.3589 53.7 26.83V26.83ZM43 16C44.23 16 44.55 18 47 18C49.45 18 50.25 13.91 51.11 13C53.17 13.23 53.11 19 56 19C58.43 19 58.43 17 59 17C61 17 60.29 22.35 63.13 22C64.79 21.79 64.4 21 66 21C67.6 21 67.68 26.21 65 30.35C65.1509 28.8611 64.9051 27.3589 64.2875 25.9957C63.67 24.6326 62.7027 23.4571 61.4839 22.5888C60.2652 21.7204 58.8383 21.19 57.3482 21.0515C55.8582 20.9129 54.358 21.1712 53 21.8C51.4381 20.2715 49.4156 19.301 47.246 19.0389C45.0765 18.7767 42.881 19.2376 41 20.35C40.7925 19.8286 40.552 19.3209 40.28 18.83C41.89 16.49 42.29 16 43 16ZM26 14H28.72C31.0551 14.0099 33.3301 14.7403 35.2345 16.0917C37.1388 17.443 38.5796 19.3492 39.36 21.55C38.5681 22.2635 37.8932 23.097 37.36 24.02L37 24C36.3609 23.1561 35.4705 22.5368 34.4569 22.2313C33.4434 21.9258 32.359 21.9498 31.36 22.3C30.7763 21.7597 30.0692 21.3706 29.3005 21.1666C28.5317 20.9626 27.7247 20.9501 26.95 21.13C25.83 18.57 26 16.85 26 14ZM24.09 18.27C24.2451 19.5415 24.5819 20.7842 25.09 21.96C24.9335 22.0645 24.7832 22.178 24.64 22.3C23.7935 22.0028 22.8827 21.9388 22.0029 22.1147C21.1232 22.2907 20.3071 22.7001 19.64 23.3C18.2016 21.8786 17.2914 20.0089 17.06 18C22.26 18 22.6 17.91 24.09 18.27ZM15.33 29.09C15.5159 29.0488 15.6862 28.9554 15.8208 28.8208C15.9554 28.6862 16.0488 28.5159 16.09 28.33C16.2411 27.6703 16.6109 27.0811 17.1392 26.6581C17.6675 26.2352 18.3232 26.0032 19 26C19.22 26 20 26.26 20.4 25.54C20.7869 24.8664 21.4199 24.3691 22.1659 24.1528C22.9119 23.9364 23.7128 24.0179 24.4 24.38C25.73 25.09 25.74 23 28 23C30.26 23 30.32 25.06 31.58 24.38C32.2672 24.0179 33.0681 23.9364 33.8141 24.1528C34.5601 24.3691 35.1931 24.8664 35.58 25.54C35.6779 25.7135 35.8254 25.8537 36.0036 25.9428C36.1818 26.0319 36.3825 26.0657 36.58 26.04C36.0792 26.2179 35.61 26.4744 35.19 26.8C34.8323 26.7939 34.4747 26.814 34.12 26.86C33.1141 26.2543 31.9527 25.957 30.7795 26.005C29.6063 26.053 28.473 26.4441 27.52 27.13C26.6928 26.5326 25.7269 26.156 24.7136 26.0358C23.7003 25.9157 22.6731 26.0559 21.7291 26.4433C20.7851 26.8307 19.9555 27.4525 19.3187 28.2498C18.682 29.0472 18.2591 29.9937 18.09 31H13.18C13.3497 30.527 13.6356 30.1043 14.0112 29.7706C14.3869 29.4369 14.8403 29.2028 15.33 29.09V29.09ZM48 63H28V60.14C32.24 61.2 34.93 61 41 61C43.3597 61.0006 45.7106 60.7118 48 60.14V63ZM41 59H35C28.0091 59.0048 21.2888 56.2978 16.2531 51.4487C11.2175 46.5995 8.25892 39.9861 8 33H68C67.7411 39.9861 64.7825 46.5995 59.7468 51.4487C54.7112 56.2978 47.9909 59.0048 41 59V59Z" fill="#231F20"/>
</g>
<defs>
<linearGradient id="paint0_linear_125_2" x1="53.6399" y1="32" x2="53.6399" y2="12" gradientUnits="userSpaceOnUse">
<stop stop-color="#6AB891"/>
<stop offset="1" stop-color="#85CBA9"/>
</linearGradient>
<linearGradient id="paint1_linear_125_2" x1="52.72" y1="26.99" x2="64.03" y2="26.99" gradientUnits="userSpaceOnUse">
<stop stop-color="#FBCC88"/>
<stop offset="1" stop-color="#FFE5C3"/>
</linearGradient>
<linearGradient id="paint2_linear_125_2" x1="12" y1="27" x2="40.52" y2="27" gradientUnits="userSpaceOnUse">
<stop stop-color="#6AB891"/>
<stop offset="1" stop-color="#85CBA9"/>
</linearGradient>
<linearGradient id="paint3_linear_125_2" x1="46.9301" y1="6.00001" x2="46.9301" y2="26" gradientUnits="userSpaceOnUse">
<stop stop-color="#6AB891"/>
<stop offset="1" stop-color="#85CBA9"/>
</linearGradient>
<linearGradient id="paint4_linear_125_2" x1="38" y1="64" x2="38" y2="58.83" gradientUnits="userSpaceOnUse">
<stop stop-color="#A0A6BA"/>
<stop offset="1" stop-color="#C6CCDA"/>
</linearGradient>
<linearGradient id="paint5_linear_125_2" x1="38" y1="60" x2="38" y2="31.96" gradientUnits="userSpaceOnUse">
<stop stop-color="#D4D8E1"/>
<stop offset="1" stop-color="#F3F4F5"/>
</linearGradient>
<linearGradient id="paint6_linear_125_2" x1="38" y1="6" x2="38" y2="32" gradientUnits="userSpaceOnUse">
<stop stop-color="#D4D8E1"/>
<stop offset="1" stop-color="#F3F4F5"/>
</linearGradient>
<linearGradient id="paint7_linear_125_2" x1="46.4199" y1="28.11" x2="46.4199" y2="19.98" gradientUnits="userSpaceOnUse">
<stop stop-color="#FBCC88"/>
<stop offset="1" stop-color="#FFE5C3"/>
</linearGradient>
<linearGradient id="paint8_linear_125_2" x1="32.7501" y1="25.1" x2="32.7501" y2="13" gradientUnits="userSpaceOnUse">
<stop stop-color="#8CDD79"/>
<stop offset="1" stop-color="#D4E6B6"/>
</linearGradient>
<linearGradient id="paint9_linear_125_2" x1="27.5" y1="29.5" x2="19" y2="29.5" gradientUnits="userSpaceOnUse">
<stop stop-color="#DA5466"/>
<stop offset="1" stop-color="#F4929C"/>
</linearGradient>
<linearGradient id="paint10_linear_125_2" x1="31" y1="32" x2="31" y2="26.99" gradientUnits="userSpaceOnUse">
<stop stop-color="#DA5466"/>
<stop offset="1" stop-color="#F4929C"/>
</linearGradient>
<linearGradient id="paint11_linear_125_2" x1="26.38" y1="20.88" x2="16" y2="20.88" gradientUnits="userSpaceOnUse">
<stop stop-color="#8CDD79"/>
<stop offset="1" stop-color="#D4E6B6"/>
</linearGradient>
<clipPath id="clip0_125_2">
<rect width="64" height="64" fill="white" transform="translate(6 6)"/>
</clipPath>
</defs>
</svg>
