<svg width="76" height="76" viewBox="0 0 76 76" fill="none" xmlns="http://www.w3.org/2000/svg">
<circle cx="38" cy="38" r="38" fill="#E4E4E4"/>
<g clip-path="url(#clip0_125_0)">
<path d="M38 69C55.1208 69 69 55.1208 69 38C69 20.8792 55.1208 7 38 7C20.8792 7 7 20.8792 7 38C7 55.1208 20.8792 69 38 69Z" fill="url(#paint0_linear_125_0)"/>
<path d="M38 57C48.4934 57 57 48.4934 57 38C57 27.5066 48.4934 19 38 19C27.5066 19 19 27.5066 19 38C19 48.4934 27.5066 57 38 57Z" fill="url(#paint1_linear_125_0)"/>
<path d="M27 25C34 25 35 29 36 32C38.3 38.91 36 40.81 40 44C45 48 43 58 31 58C23 58 15 53.18 15 42C15 31 20 25 27 25Z" fill="url(#paint2_linear_125_0)"/>
<path d="M27 25C34 25 35 29 36 32C38.3 38.91 36 40.81 40 44C45 48 43 58 31 58C23 58 15 53.18 15 42C15 31 20 25 27 25Z" fill="url(#paint3_linear_125_0)"/>
<path d="M41.15 53.75C35.85 61.3 15 59.83 15 42C15 34.78 17.15 29.72 20.61 27.09C18.34 30 17 34.31 17 40C17 56.47 34.45 58.6 41.15 53.75Z" fill="#C7CDD8"/>
<path d="M27 45C30.3137 45 33 42.3137 33 39C33 35.6863 30.3137 33 27 33C23.6863 33 21 35.6863 21 39C21 42.3137 23.6863 45 27 45Z" fill="url(#paint4_linear_125_0)"/>
<path d="M27 45C26.128 44.9991 25.2666 44.8082 24.4759 44.4404C23.6852 44.0727 22.9841 43.537 22.4216 42.8707C21.859 42.2043 21.4484 41.4234 21.2185 40.5822C20.9885 39.741 20.9447 38.8598 21.09 38C22.19 44.64 31.81 44.63 32.91 38C33.0554 38.8598 33.0115 39.741 32.7816 40.5822C32.5516 41.4234 32.141 42.2043 31.5785 42.8707C31.0159 43.537 30.3149 44.0727 29.5242 44.4404C28.7334 44.8082 27.8721 44.9991 27 45Z" fill="#DD8B37"/>
<path d="M55.6301 46.8C45.1701 45.57 37.0501 38.64 35.3301 29.59C35.2585 29.2019 35.2641 28.8036 35.3465 28.4177C35.4289 28.0318 35.5864 27.6659 35.8102 27.3409C36.034 27.0159 36.3196 26.7381 36.6508 26.5235C36.9819 26.3089 37.3521 26.1616 37.7401 26.09C38.1282 26.0184 38.5265 26.024 38.9124 26.1064C39.2983 26.1888 39.6642 26.3463 39.9892 26.5701C40.3142 26.7939 40.592 27.0795 40.8066 27.4107C41.0212 27.7418 41.1685 28.1119 41.2401 28.5C42.4901 35 48.5701 40 56.4101 40.85C57.1328 40.9497 57.7943 41.3092 58.2711 41.8614C58.7478 42.4136 59.007 43.1205 59.0001 43.85C58.9963 44.2729 58.9031 44.6902 58.7266 45.0746C58.5502 45.459 58.2944 45.8017 57.9762 46.0802C57.658 46.3588 57.2845 46.5669 56.8801 46.691C56.4758 46.815 56.0498 46.8522 55.6301 46.8V46.8Z" fill="url(#paint5_linear_125_0)"/>
<path d="M57.6301 36.8C47.1701 35.57 39.0501 28.64 37.3301 19.59C37.2585 19.2019 37.2641 18.8036 37.3465 18.4177C37.4289 18.0318 37.5864 17.6659 37.8102 17.3409C38.034 17.0159 38.3196 16.7381 38.6508 16.5235C38.9819 16.3089 39.3521 16.1616 39.7401 16.09C40.1282 16.0184 40.5265 16.024 40.9124 16.1064C41.2983 16.1888 41.6642 16.3463 41.9892 16.5701C42.3142 16.7939 42.592 17.0795 42.8066 17.4107C43.0212 17.7418 43.1685 18.1119 43.2401 18.5C44.4901 25 50.5701 30 58.4101 30.85C59.1328 30.9497 59.7943 31.3092 60.2711 31.8614C60.7478 32.4136 61.007 33.1205 61.0001 33.85C60.9963 34.2729 60.9031 34.6902 60.7266 35.0746C60.5502 35.459 60.2944 35.8017 59.9762 36.0802C59.658 36.3588 59.2845 36.5669 58.8801 36.691C58.4758 36.815 58.0498 36.8522 57.6301 36.8V36.8Z" fill="url(#paint6_linear_125_0)"/>
<path d="M57.6301 36.8C48.7601 35.8 41.57 30.61 38.55 23.56C41.98 29.56 48.6201 33.86 56.6301 34.8C57.074 34.8568 57.5251 34.8136 57.9501 34.6734C58.3752 34.5333 58.7636 34.2998 59.0867 33.9901C59.4098 33.6804 59.6596 33.3023 59.8176 32.8835C59.9756 32.4648 60.038 32.016 60 31.57C60.4841 31.9944 60.8187 32.5631 60.9546 33.1923C61.0906 33.8215 61.0205 34.4777 60.7548 35.064C60.4891 35.6503 60.0419 36.1356 59.4792 36.4482C58.9165 36.7608 58.2682 36.8842 57.6301 36.8Z" fill="#CF4055"/>
<path d="M55.6301 46.8C46.7601 45.8 39.57 40.61 36.55 33.56C39.98 39.56 46.6201 43.86 54.6301 44.8C55.074 44.8568 55.5251 44.8136 55.9501 44.6734C56.3752 44.5333 56.7636 44.2998 57.0867 43.9901C57.4098 43.6804 57.6596 43.3023 57.8176 42.8835C57.9756 42.4648 58.038 42.016 58 41.57C58.4841 41.9944 58.8187 42.5631 58.9546 43.1923C59.0906 43.8215 59.0205 44.4777 58.7548 45.064C58.4891 45.6503 58.0419 46.1356 57.4792 46.4482C56.9165 46.7608 56.2682 46.8842 55.6301 46.8V46.8Z" fill="#CF4055"/>
<path d="M38 6C31.671 6 25.4841 7.87677 20.2218 11.393C14.9594 14.9092 10.8579 19.9069 8.43587 25.7541C6.01386 31.6014 5.38016 38.0355 6.61489 44.2429C7.84961 50.4503 10.8973 56.1521 15.3726 60.6274C19.8479 65.1027 25.5497 68.1504 31.7571 69.3851C37.9645 70.6199 44.3986 69.9861 50.2459 67.5641C56.0931 65.1421 61.0908 61.0406 64.607 55.7782C68.1232 50.5159 70 44.329 70 38C70 29.5131 66.6286 21.3737 60.6274 15.3726C54.6263 9.37142 46.4869 6 38 6V6ZM38 68C32.0666 68 26.2664 66.2405 21.3329 62.9441C16.3994 59.6476 12.5543 54.9623 10.2836 49.4805C8.013 43.9987 7.4189 37.9667 8.57646 32.1473C9.73401 26.3279 12.5912 20.9824 16.7868 16.7868C20.9824 12.5912 26.3279 9.734 32.1473 8.57644C37.9667 7.41888 43.9987 8.01299 49.4805 10.2836C54.9623 12.5542 59.6477 16.3994 62.9441 21.3329C66.2405 26.2664 68 32.0666 68 38C68 45.9565 64.8393 53.5871 59.2132 59.2132C53.5871 64.8393 45.9565 68 38 68Z" fill="#231F20"/>
<path d="M27 32C25.6155 32 24.2622 32.4105 23.111 33.1797C21.9599 33.9489 21.0627 35.0421 20.5328 36.3212C20.003 37.6003 19.8644 39.0078 20.1345 40.3656C20.4046 41.7235 21.0713 42.9708 22.0503 43.9497C23.0292 44.9287 24.2765 45.5954 25.6344 45.8655C26.9922 46.1356 28.3997 45.997 29.6788 45.4672C30.9579 44.9373 32.0511 44.0401 32.8203 42.889C33.5895 41.7378 34 40.3845 34 39C34 37.1435 33.2625 35.363 31.9497 34.0503C30.637 32.7375 28.8565 32 27 32V32ZM27 44C26.0111 44 25.0444 43.7068 24.2222 43.1573C23.3999 42.6079 22.759 41.827 22.3806 40.9134C22.0022 39.9998 21.9031 38.9945 22.0961 38.0245C22.289 37.0546 22.7652 36.1637 23.4645 35.4645C24.1637 34.7652 25.0546 34.289 26.0246 34.0961C26.9945 33.9031 27.9998 34.0022 28.9134 34.3806C29.8271 34.759 30.6079 35.3999 31.1574 36.2221C31.7068 37.0444 32 38.0111 32 39C32 40.3261 31.4732 41.5979 30.5355 42.5355C29.5979 43.4732 28.3261 44 27 44Z" fill="#231F20"/>
<path d="M62 33.82C62.0083 32.8434 61.659 31.8975 61.0179 31.1606C60.3769 30.4238 59.4884 29.9469 58.52 29.82C57.6722 29.7365 56.8305 29.5996 56 29.41C54.8604 26.9984 53.2469 24.8409 51.2557 23.0662C49.2645 21.2914 46.9363 19.9358 44.41 19.08C44.34 18.83 44.27 18.57 44.22 18.31C44.0572 17.4049 43.5875 16.5836 42.89 15.9843C42.1924 15.3849 41.3097 15.0443 40.3904 15.0196C39.4711 14.995 38.5714 15.2878 37.8428 15.8489C37.1142 16.4099 36.6011 17.2049 36.39 18.1C31.3204 18.5082 26.5967 20.8325 23.18 24.6C17.43 26.49 14 32.79 14 42C14 56.91 28.14 61.37 37.08 58C40.7861 58.1777 44.4681 57.3147 47.7092 55.5085C50.9503 53.7024 53.6213 51.0253 55.42 47.78C56.3574 47.9212 57.3146 47.7248 58.1207 47.2259C58.9268 46.727 59.5295 45.958 59.8214 45.056C60.1132 44.154 60.0752 43.1777 59.7142 42.3012C59.3531 41.4246 58.6925 40.7048 57.85 40.27C57.9641 39.4585 58.0142 38.6393 58 37.82C59.0609 37.82 60.0783 37.3986 60.8284 36.6484C61.5786 35.8983 62 34.8809 62 33.82ZM53.27 28.52C49.8987 27.2149 47.0971 24.7604 45.36 21.59C48.6365 23.0474 51.3944 25.4636 53.27 28.52V28.52ZM36.43 20.1C36.7816 21.8002 37.3531 23.4474 38.13 25C37.4411 25.0186 36.7694 25.2189 36.1829 25.5807C35.5963 25.9424 35.1158 26.4528 34.79 27.06C32.79 24.62 29.79 23.93 26.71 24C29.4918 21.7653 32.8751 20.4078 36.43 20.1V20.1ZM16 42C16 32.13 20.21 26 27 26C32.54 26 33.79 28.59 34.71 31.29C35.556 33.576 36.0778 35.9693 36.26 38.4C36.49 40.84 36.66 42.61 39.38 44.78C43.78 48.3 41.84 57 31 57C24.08 57 16 53.07 16 42ZM40.67 55.8C41.5795 55.0236 42.3098 54.0592 42.8106 52.9733C43.3114 51.8874 43.5708 50.7058 43.5708 49.51C43.5708 48.3142 43.3114 47.1326 42.8106 46.0467C42.3098 44.9608 41.5795 43.9964 40.67 43.22C38.67 41.63 38.51 40.52 38.31 38.42C42.057 43.1354 47.3861 46.3328 53.31 47.42C51.9455 49.6573 50.1061 51.5676 47.9219 53.0156C45.7377 54.4637 43.2621 55.4142 40.67 55.8V55.8ZM57.33 45.31C57.1177 45.5014 56.8668 45.6451 56.5942 45.7314C56.3217 45.8176 56.0338 45.8444 55.75 45.81C46.21 44.68 38 38.4 36.32 29.4C36.2599 29.1061 36.2668 28.8024 36.34 28.5114C36.4132 28.2205 36.551 27.9497 36.7431 27.7192C36.9351 27.4887 37.1766 27.3044 37.4496 27.1799C37.7225 27.0554 38.02 26.9939 38.32 27C38.796 27.0117 39.2538 27.1857 39.6175 27.493C39.9812 27.8003 40.229 28.2226 40.32 28.69C41.65 35.61 48.1 40.89 56.32 41.85C56.6915 41.9117 57.038 42.0769 57.3197 42.3268C57.6014 42.5767 57.8069 42.9011 57.9124 43.2626C58.0179 43.6241 58.0192 44.008 57.9162 44.3702C57.8132 44.7324 57.61 45.0582 57.33 45.31ZM56 37.56C56.0437 38.2975 56.0169 39.0376 55.92 39.77C50.32 39 45.75 36 43.51 31.85C47.0863 34.8384 51.4002 36.8105 56 37.56V37.56ZM59.35 35.31C59.1377 35.5014 58.8868 35.6451 58.6142 35.7314C58.3417 35.8176 58.0538 35.8444 57.77 35.81C47.11 34.56 39.83 27.42 38.32 19.4C38.2734 19.1413 38.2782 18.8759 38.3341 18.6191C38.39 18.3622 38.496 18.1189 38.646 17.903C38.7959 17.6871 38.987 17.5029 39.2081 17.3608C39.4293 17.2187 39.6763 17.1216 39.935 17.075C40.1937 17.0284 40.4591 17.0332 40.7159 17.0891C40.9728 17.145 41.2161 17.251 41.432 17.401C41.6479 17.5509 41.8321 17.742 41.9742 17.9631C42.1163 18.1843 42.2134 18.4313 42.26 18.69C43.69 26.1 50.67 30.97 58.26 31.85C58.6364 31.9025 58.99 32.0611 59.2795 32.3072C59.5689 32.5534 59.7823 32.8769 59.8946 33.24C60.0068 33.603 60.0134 33.9905 59.9134 34.3571C59.8134 34.7237 59.611 35.0542 59.33 35.31H59.35Z" fill="#231F20"/>
</g>
<defs>
<linearGradient id="paint0_linear_125_0" x1="38" y1="69" x2="38" y2="7" gradientUnits="userSpaceOnUse">
<stop stop-color="#D4D8E1"/>
<stop offset="1" stop-color="#F3F4F5"/>
</linearGradient>
<linearGradient id="paint1_linear_125_0" x1="38" y1="57" x2="38" y2="19" gradientUnits="userSpaceOnUse">
<stop stop-color="#A0A6BA"/>
<stop offset="1" stop-color="#C6CCDA"/>
</linearGradient>
<linearGradient id="paint2_linear_125_0" x1="28.78" y1="58" x2="28.78" y2="25" gradientUnits="userSpaceOnUse">
<stop stop-color="#D4D8E1"/>
<stop offset="1" stop-color="#F3F4F5"/>
</linearGradient>
<linearGradient id="paint3_linear_125_0" x1="28.78" y1="58" x2="28.78" y2="25" gradientUnits="userSpaceOnUse">
<stop stop-color="#D4D8E1"/>
<stop offset="1" stop-color="#F3F4F5"/>
</linearGradient>
<linearGradient id="paint4_linear_125_0" x1="27" y1="45" x2="27" y2="33" gradientUnits="userSpaceOnUse">
<stop stop-color="#E9A254"/>
<stop offset="1" stop-color="#F4BB79"/>
</linearGradient>
<linearGradient id="paint5_linear_125_0" x1="47.1401" y1="46.82" x2="47.1401" y2="26" gradientUnits="userSpaceOnUse">
<stop stop-color="#DA5466"/>
<stop offset="1" stop-color="#F4929C"/>
</linearGradient>
<linearGradient id="paint6_linear_125_0" x1="49.1401" y1="36.82" x2="49.1401" y2="16" gradientUnits="userSpaceOnUse">
<stop stop-color="#DA5466"/>
<stop offset="1" stop-color="#F4929C"/>
</linearGradient>
<clipPath id="clip0_125_0">
<rect width="64" height="64" fill="white" transform="translate(6 6)"/>
</clipPath>
</defs>
</svg>
