<svg width="76" height="76" viewBox="0 0 76 76" fill="none" xmlns="http://www.w3.org/2000/svg">
<circle cx="38" cy="38" r="38" fill="#E4E4E4"/>
<g clip-path="url(#clip0_125_1)">
<path d="M53 30C52.77 32.85 53.22 27.23 50 68H26L23 30H53Z" fill="url(#paint0_linear_125_1)"/>
<path d="M53 30L52.84 32H23.16L23 30H53Z" fill="#AAE0E5"/>
<path d="M48.6801 34C46.2801 64.43 46.6801 59.9 46.3101 64H29.6901C29.3601 59.88 29.7701 65 27.3201 34H48.6801Z" fill="url(#paint1_linear_125_1)"/>
<path d="M46.5499 61C46.4299 62.56 46.43 62.49 46.31 64H29.69C29.57 62.51 29.58 62.59 29.45 61H46.5499Z" fill="#CBA07A"/>
<path d="M53 26C21.84 26 23 25.9 23 26C23 22.8174 24.2642 19.7652 26.5147 17.5147C28.7651 15.2643 31.8174 14 35 14H41C44.1826 14 47.2348 15.2643 49.4852 17.5147C51.7357 19.7652 53 22.8174 53 26Z" fill="url(#paint2_linear_125_1)"/>
<path d="M36 6V34H40V6H36Z" fill="url(#paint3_linear_125_1)"/>
<path d="M55 26H21V30H55V26Z" fill="url(#paint4_linear_125_1)"/>
<path d="M55 25H54C53.7476 21.7284 52.2673 18.6732 49.8562 16.4475C47.445 14.2218 44.2814 12.9903 41 13V6C41 5.73478 40.8946 5.48043 40.7071 5.29289C40.5196 5.10536 40.2652 5 40 5H36C35.7348 5 35.4804 5.10536 35.2929 5.29289C35.1054 5.48043 35 5.73478 35 6V13C31.7273 13.0029 28.576 14.2401 26.1755 16.4645C23.775 18.6889 22.3017 21.737 22.05 25H21C20.7348 25 20.4804 25.1054 20.2929 25.2929C20.1054 25.4804 20 25.7348 20 26V30C20 30.2652 20.1054 30.5196 20.2929 30.7071C20.4804 30.8946 20.7348 31 21 31H22.08L25 68.08C25.0202 68.3311 25.1343 68.5654 25.3197 68.7359C25.5051 68.9065 25.7481 69.0008 26 69H50C50.2519 69.0008 50.4949 68.9065 50.6803 68.7359C50.8657 68.5654 50.9798 68.3311 51 68.08L53.92 31H55C55.2652 31 55.5196 30.8946 55.7071 30.7071C55.8946 30.5196 56 30.2652 56 30V26C56 25.7348 55.8946 25.4804 55.7071 25.2929C55.5196 25.1054 55.2652 25 55 25ZM52 25H41V15C43.7521 14.9886 46.4085 16.0093 48.4449 17.8606C50.4814 19.7119 51.7498 22.2593 52 25V25ZM37 25V15H39V25H37ZM37 7H39V13H37V7ZM35 15V25H24C24.2502 22.2593 25.5186 19.7119 27.5551 17.8606C29.5915 16.0093 32.2479 14.9886 35 15V15ZM49.08 67H26.92L24.08 31H35V33C27 33 27.13 32.87 26.71 33.32C26.29 33.77 26.27 31.59 28.6 64.07C28.6177 64.3229 28.7309 64.5596 28.9165 64.7323C29.1022 64.9049 29.3465 65.0006 29.6 65H46.4C46.6535 65.0006 46.8978 64.9049 47.0835 64.7323C47.2691 64.5596 47.3823 64.3229 47.4 64.07L49.55 34.07C49.5596 33.9329 49.5409 33.7953 49.495 33.6658C49.449 33.5363 49.3769 33.4176 49.2831 33.3172C49.1892 33.2168 49.0757 33.1368 48.9496 33.0822C48.8234 33.0277 48.6874 32.9997 48.55 33H41V31H51.92L49.08 67ZM39 31V33H37V31H39ZM47.48 35L45.48 63H30.53L28.53 35H47.48ZM54 29H22V27H54V29Z" fill="#231F20"/>
<path d="M33.5 58C33.1022 58 32.7206 58.158 32.4393 58.4393C32.158 58.7206 32 59.1022 32 59.5C32 59.8978 32.158 60.2794 32.4393 60.5607C32.7206 60.842 33.1022 61 33.5 61C33.8978 61 34.2794 60.842 34.5607 60.5607C34.842 60.2794 35 59.8978 35 59.5C35 59.1022 34.842 58.7206 34.5607 58.4393C34.2794 58.158 33.8978 58 33.5 58V58Z" fill="#231F20"/>
<path d="M43.5 59C43.1022 59 42.7206 59.158 42.4393 59.4393C42.158 59.7206 42 60.1022 42 60.5C42 60.8978 42.158 61.2794 42.4393 61.5607C42.7206 61.842 43.1022 62 43.5 62C43.8978 62 44.2794 61.842 44.5607 61.5607C44.842 61.2794 45 60.8978 45 60.5C45 60.1022 44.842 59.7206 44.5607 59.4393C44.2794 59.158 43.8978 59 43.5 59Z" fill="#231F20"/>
<path d="M38.5 59C38.1022 59 37.7206 59.158 37.4393 59.4393C37.158 59.7206 37 60.1022 37 60.5C37 60.8978 37.158 61.2794 37.4393 61.5607C37.7206 61.842 38.1022 62 38.5 62C38.8978 62 39.2794 61.842 39.5607 61.5607C39.842 61.2794 40 60.8978 40 60.5C40 60.1022 39.842 59.7206 39.5607 59.4393C39.2794 59.158 38.8978 59 38.5 59Z" fill="#231F20"/>
<path d="M41.5 58C41.8978 58 42.2794 57.842 42.5607 57.5607C42.842 57.2794 43 56.8978 43 56.5C43 56.1022 42.842 55.7206 42.5607 55.4393C42.2794 55.158 41.8978 55 41.5 55C41.1022 55 40.7206 55.158 40.4393 55.4393C40.158 55.7206 40 56.1022 40 56.5C40 56.8978 40.158 57.2794 40.4393 57.5607C40.7206 57.842 41.1022 58 41.5 58V58Z" fill="#231F20"/>
<path d="M35 56.5C35 56.8978 35.158 57.2794 35.4393 57.5607C35.7206 57.842 36.1022 58 36.5 58C36.8978 58 37.2794 57.842 37.5607 57.5607C37.842 57.2794 38 56.8978 38 56.5C38 56.1022 37.842 55.7206 37.5607 55.4393C37.2794 55.158 36.8978 55 36.5 55C36.1022 55 35.7206 55.158 35.4393 55.4393C35.158 55.7206 35 56.1022 35 56.5V56.5Z" fill="#231F20"/>
<path d="M32.5 56C32.8978 56 33.2794 55.842 33.5607 55.5607C33.842 55.2794 34 54.8978 34 54.5C34 54.1022 33.842 53.7206 33.5607 53.4393C33.2794 53.158 32.8978 53 32.5 53C32.1022 53 31.7206 53.158 31.4393 53.4393C31.158 53.7206 31 54.1022 31 54.5C31 54.8978 31.158 55.2794 31.4393 55.5607C31.7206 55.842 32.1022 56 32.5 56V56Z" fill="#231F20"/>
<path d="M38.5 54C38.8978 54 39.2794 53.842 39.5607 53.5607C39.842 53.2794 40 52.8978 40 52.5C40 52.1022 39.842 51.7206 39.5607 51.4393C39.2794 51.158 38.8978 51 38.5 51C38.1022 51 37.7206 51.158 37.4393 51.4393C37.158 51.7206 37 52.1022 37 52.5C37 52.8978 37.158 53.2794 37.4393 53.5607C37.7206 53.842 38.1022 54 38.5 54Z" fill="#231F20"/>
<path d="M34.5 52C34.8978 52 35.2794 51.842 35.5607 51.5607C35.842 51.2794 36 50.8978 36 50.5C36 50.1022 35.842 49.7206 35.5607 49.4393C35.2794 49.158 34.8978 49 34.5 49C34.1022 49 33.7206 49.158 33.4393 49.4393C33.158 49.7206 33 50.1022 33 50.5C33 50.8978 33.158 51.2794 33.4393 51.5607C33.7206 51.842 34.1022 52 34.5 52Z" fill="#231F20"/>
<path d="M43.5 54C43.8978 54 44.2794 53.842 44.5607 53.5607C44.842 53.2794 45 52.8978 45 52.5C45 52.1022 44.842 51.7206 44.5607 51.4393C44.2794 51.158 43.8978 51 43.5 51C43.1022 51 42.7206 51.158 42.4393 51.4393C42.158 51.7206 42 52.1022 42 52.5C42 52.8978 42.158 53.2794 42.4393 53.5607C42.7206 53.842 43.1022 54 43.5 54V54Z" fill="#231F20"/>
</g>
<defs>
<linearGradient id="paint0_linear_125_1" x1="38" y1="68" x2="38" y2="30" gradientUnits="userSpaceOnUse">
<stop stop-color="#9DD5DF"/>
<stop offset="1" stop-color="#C3E1F5"/>
</linearGradient>
<linearGradient id="paint1_linear_125_1" x1="38.0001" y1="64" x2="38.0001" y2="34" gradientUnits="userSpaceOnUse">
<stop stop-color="#D1A788"/>
<stop offset="1" stop-color="#F2D3B8"/>
</linearGradient>
<linearGradient id="paint2_linear_125_1" x1="38" y1="26" x2="38" y2="14" gradientUnits="userSpaceOnUse">
<stop stop-color="#D4D8E1"/>
<stop offset="1" stop-color="#F3F4F5"/>
</linearGradient>
<linearGradient id="paint3_linear_125_1" x1="6" y1="34" x2="7" y2="6" gradientUnits="userSpaceOnUse">
<stop stop-color="#9DD5DF"/>
<stop offset="1" stop-color="#C3E1F5"/>
</linearGradient>
<linearGradient id="paint4_linear_125_1" x1="38" y1="30" x2="38" y2="26" gradientUnits="userSpaceOnUse">
<stop stop-color="#D4D8E1"/>
<stop offset="1" stop-color="#F3F4F5"/>
</linearGradient>
<clipPath id="clip0_125_1">
<rect width="64" height="64" fill="white" transform="translate(6 5)"/>
</clipPath>
</defs>
</svg>
