<svg width="76" height="76" viewBox="0 0 76 76" fill="none" xmlns="http://www.w3.org/2000/svg">
<circle cx="38" cy="38" r="38" fill="#E4E4E4"/>
<g clip-path="url(#clip0_125_5)">
<path d="M56.375 20.5781C55.0625 33.9375 53.3125 51.75 52 65.1094H24C21.8038 42.728 20.85 33.0469 19.625 20.5781H56.375Z" fill="url(#paint0_linear_125_5)"/>
<path d="M56.4625 28.5938L54.1875 51.75H21.8125C21.305 46.5933 20.15 34.8281 19.5375 28.5938H56.4625Z" fill="url(#paint1_linear_125_5)"/>
<path d="M54.45 49.0781L54.1875 51.75H21.8125L21.55 49.0781H54.45Z" fill="#CBA07A"/>
<path d="M52.2625 62.4375L52 65.1094H24L23.7375 62.4375H52.2625Z" fill="#C7CDD8"/>
<path d="M38 48.1875C42.3492 48.1875 45.875 44.5988 45.875 40.1719C45.875 35.745 42.3492 32.1562 38 32.1562C33.6508 32.1562 30.125 35.745 30.125 40.1719C30.125 44.5988 33.6508 48.1875 38 48.1875Z" fill="url(#paint2_linear_125_5)"/>
<path d="M38 48.1875C42.3492 48.1875 45.875 44.5988 45.875 40.1719C45.875 35.745 42.3492 32.1562 38 32.1562C33.6508 32.1562 30.125 35.745 30.125 40.1719C30.125 44.5988 33.6508 48.1875 38 48.1875Z" fill="url(#paint3_linear_125_5)"/>
<path d="M38 48.1875C36.8924 48.187 35.7973 47.9486 34.7863 47.4879C33.7753 47.0273 32.8711 46.3547 32.1329 45.5142C31.3946 44.6737 30.8389 43.6841 30.5019 42.61C30.165 41.536 30.0545 40.4017 30.1775 39.2812C30.4002 41.234 31.3201 43.0354 32.7624 44.3429C34.2046 45.6504 36.0687 46.3729 38 46.3729C39.9314 46.3729 41.7955 45.6504 43.2377 44.3429C44.68 43.0354 45.5999 41.234 45.8225 39.2812C45.9456 40.4017 45.8351 41.536 45.4982 42.61C45.1612 43.6841 44.6055 44.6737 43.8672 45.5142C43.129 46.3547 42.2248 47.0273 41.2138 47.4879C40.2028 47.9486 39.1077 48.187 38 48.1875V48.1875Z" fill="#4DA67F"/>
<path d="M21.375 15.2344H54.625C55.5533 15.2344 56.4435 15.6097 57.0999 16.2778C57.7563 16.9459 58.125 17.852 58.125 18.7969V20.5781H17.875V18.7969C17.875 17.852 18.2437 16.9459 18.9001 16.2778C19.5565 15.6097 20.4467 15.2344 21.375 15.2344V15.2344Z" fill="url(#paint4_linear_125_5)"/>
<path d="M53.75 15.2344H22.25L24 9.89062H52L53.75 15.2344Z" fill="url(#paint5_linear_125_5)"/>
<path d="M56.375 20.5781L56.1125 23.25H19.8875L19.625 20.5781H56.375Z" fill="#DFE3EA"/>
<path d="M38 49.0781C39.7306 49.0781 41.4223 48.5558 42.8612 47.5772C44.3002 46.5985 45.4217 45.2076 46.0839 43.5802C46.7462 41.9528 46.9195 40.162 46.5819 38.4344C46.2443 36.7067 45.4109 35.1198 44.1872 33.8742C42.9635 32.6286 41.4044 31.7804 39.707 31.4368C38.0097 31.0931 36.2504 31.2695 34.6515 31.9436C33.0527 32.6177 31.6861 33.7592 30.7246 35.2238C29.7632 36.6885 29.25 38.4104 29.25 40.1719C29.25 42.534 30.1719 44.7993 31.8128 46.4696C33.4538 48.1398 35.6794 49.0781 38 49.0781ZM38 33.0469C39.3845 33.0469 40.7378 33.4648 41.889 34.2477C43.0401 35.0306 43.9373 36.1433 44.4672 37.4453C44.997 38.7472 45.1356 40.1798 44.8655 41.5619C44.5954 42.944 43.9287 44.2136 42.9497 45.21C41.9708 46.2065 40.7235 46.8851 39.3656 47.16C38.0078 47.4349 36.6003 47.2938 35.3212 46.7545C34.0421 46.2152 32.9489 45.302 32.1797 44.1303C31.4105 42.9586 31 41.5811 31 40.1719C31 38.2822 31.7375 36.4699 33.0503 35.1337C34.363 33.7975 36.1435 33.0469 38 33.0469V33.0469Z" fill="#231F20"/>
<path d="M54.625 14.3437C54.275 14.3437 54.625 15.0116 52.875 9.60555C52.8141 9.42121 52.6956 9.26222 52.5376 9.15286C52.3796 9.0435 52.1908 8.98979 52 8.99993H24C23.8166 8.99945 23.6376 9.05766 23.4885 9.16634C23.3393 9.27501 23.2275 9.42866 23.1688 9.60555L21.62 14.3437C21.0252 14.3097 20.4298 14.3998 19.8704 14.6083C19.311 14.8168 18.7994 15.1395 18.3668 15.5564C17.9342 15.9734 17.5899 16.4758 17.3548 17.033C17.1198 17.5902 16.9991 18.1904 17 18.7968V20.5781C17 20.8143 17.0922 21.0408 17.2563 21.2078C17.4204 21.3748 17.6429 21.4687 17.875 21.4687H18.8288L19.45 27.7031C19.2208 27.7257 19.0096 27.8393 18.8622 28.0194C18.7148 28.1994 18.643 28.4314 18.6625 28.6649L20.9375 51.8212C20.9593 52.0416 21.061 52.2459 21.2228 52.3941C21.3846 52.5423 21.5948 52.6239 21.8125 52.6227C21.935 52.6227 21.76 51.2868 23.125 65.1806C23.1468 65.401 23.2485 65.6053 23.4103 65.7535C23.5721 65.9017 23.7823 65.9832 24 65.9821H52C52.2177 65.9832 52.4279 65.9017 52.5897 65.7535C52.7515 65.6053 52.8532 65.401 52.875 65.1806L54.1088 52.6406C54.3396 52.6629 54.5698 52.591 54.7486 52.4407C54.9275 52.2904 55.0404 52.074 55.0625 51.839C57.5388 26.6165 57.4863 28.4156 57.11 27.997C56.375 27.2043 56.375 29.4843 57.1713 21.4687H58.125C58.3571 21.4687 58.5796 21.3748 58.7437 21.2078C58.9078 21.0408 59 20.8143 59 20.5781V18.7968C59 17.6158 58.5391 16.4831 57.7186 15.648C56.8981 14.8128 55.7853 14.3437 54.625 14.3437V14.3437ZM24.63 10.7812H51.37L52.5338 14.3437H23.4663L24.63 10.7812ZM51.2125 64.2187H24.7875L23.6588 52.6406H52.3413L51.2125 64.2187ZM53.4 50.8593H22.6L20.5 29.4843H55.5L53.4 50.8593ZM54.8 27.7031H21.2L20.5875 21.4687H55.4125L54.8 27.7031ZM57.25 19.6874H18.75V18.7968C18.75 18.0882 19.0266 17.4086 19.5188 16.9075C20.0111 16.4064 20.6788 16.1249 21.375 16.1249H54.625C55.3212 16.1249 55.9889 16.4064 56.4812 16.9075C56.9734 17.4086 57.25 18.0882 57.25 18.7968V19.6874Z" fill="#231F20"/>
</g>
<defs>
<linearGradient id="paint0_linear_125_5" x1="38" y1="65.1094" x2="38" y2="20.5781" gradientUnits="userSpaceOnUse">
<stop stop-color="#D4D8E1"/>
<stop offset="1" stop-color="#F3F4F5"/>
</linearGradient>
<linearGradient id="paint1_linear_125_5" x1="38" y1="51.75" x2="38" y2="28.5938" gradientUnits="userSpaceOnUse">
<stop stop-color="#D1A788"/>
<stop offset="1" stop-color="#F2D3B8"/>
</linearGradient>
<linearGradient id="paint2_linear_125_5" x1="38" y1="48.1875" x2="38" y2="32.1562" gradientUnits="userSpaceOnUse">
<stop stop-color="#6AB891"/>
<stop offset="1" stop-color="#85CBA9"/>
</linearGradient>
<linearGradient id="paint3_linear_125_5" x1="38" y1="48.1875" x2="38" y2="32.1562" gradientUnits="userSpaceOnUse">
<stop stop-color="#6AB891"/>
<stop offset="1" stop-color="#85CBA9"/>
</linearGradient>
<linearGradient id="paint4_linear_125_5" x1="10" y1="20.5781" x2="10.9056" y2="15.2396" gradientUnits="userSpaceOnUse">
<stop stop-color="#D4D8E1"/>
<stop offset="1" stop-color="#F3F4F5"/>
</linearGradient>
<linearGradient id="paint5_linear_125_5" x1="10" y1="15.2344" x2="10.9056" y2="9.89582" gradientUnits="userSpaceOnUse">
<stop stop-color="#D4D8E1"/>
<stop offset="1" stop-color="#F3F4F5"/>
</linearGradient>
<clipPath id="clip0_125_5">
<rect width="56" height="57" fill="white" transform="translate(10 9)"/>
</clipPath>
</defs>
</svg>
