<svg width="76" height="76" viewBox="0 0 76 76" fill="none" xmlns="http://www.w3.org/2000/svg">
<circle cx="38" cy="38" r="38" fill="#E4E4E4"/>
<g clip-path="url(#clip0_125_6)">
<path d="M59.875 31.4844L54.5312 64.4375L51.8594 67.1094C44.7967 64.7581 32.2122 64.7492 25.1406 67.1094L22.4688 64.4375L17.125 31.4844H23.3594C26.432 35.1448 35.5075 38.3244 44.7344 36.1423C49.1875 35.127 52.4205 32.9361 53.6406 31.4844H59.875Z" fill="url(#paint0_linear_125_6)"/>
<path d="M59.875 31.4844L54.5312 64.4375L51.8594 67.1094C44.7967 64.7581 32.2122 64.7492 25.1406 67.1094L22.4688 64.4375L17.125 31.4844H23.3594C26.432 35.1448 35.5075 38.3244 44.7344 36.1423C49.1875 35.127 52.4205 32.9361 53.6406 31.4844H59.875Z" fill="url(#paint1_linear_125_6)"/>
<path d="M59.875 31.4844L59.4386 34.1562H53.6406C49.0717 39.598 35.5164 41.5573 26.9219 36.8281C25.6004 36.1317 24.3979 35.2299 23.3594 34.1562H17.5614L17.125 31.4844H23.3594C26.432 35.1448 35.5075 38.3244 44.7344 36.1423C49.1875 35.127 52.4205 32.9361 53.6406 31.4844H59.875Z" fill="#FFABB7"/>
<path d="M54.9232 62.0328L54.5313 64.4375L51.8594 67.1094C44.7967 64.7581 32.2122 64.7492 25.1407 67.1094L22.4688 64.4375L22.0769 62.0328L24.5885 64.4375C31.8916 62.0952 45.0105 62.0684 52.4116 64.4375L54.9232 62.0328Z" fill="#CF4055"/>
<path d="M40.2812 22.5781V36.7747C38.4988 36.8837 36.7102 36.83 34.9375 36.6144V22.5781H40.2812Z" fill="url(#paint2_linear_125_6)"/>
<path d="M24.5261 32.5709C24.1066 32.2431 23.7162 31.8795 23.3594 31.4844H19.031L17.8375 20.2447L23.1813 19.6836L24.5261 32.5709Z" fill="url(#paint3_linear_125_6)"/>
<path d="M35.8281 19.9062V22.5781H34.9375V36.6144C33.4267 36.4359 31.9359 36.1168 30.4844 35.6614V19.9062H35.8281Z" fill="url(#paint4_linear_125_6)"/>
<path d="M32.2656 15.4531V19.9063H30.4844V35.6614C29.2505 35.2775 28.0572 34.7734 26.9219 34.1563V15.4531H32.2656Z" fill="url(#paint5_linear_125_6)"/>
<path d="M26.9219 11.8906V34.1562C26.0764 33.7024 25.2744 33.1717 24.5261 32.5709L23.1545 19.6836L21.5781 19.8528V11.8906H26.9219Z" fill="url(#paint6_linear_125_6)"/>
<path d="M37.6094 11.8906V22.5781H35.8281V19.9062H32.2656V11.8906H37.6094Z" fill="url(#paint7_linear_125_6)"/>
<path d="M54.5312 13.6719V18.8553L53.9167 18.7841L52.3403 32.6689C51.6309 33.2295 50.874 33.7272 50.0781 34.1562V19.9062H49.1875V13.6719H54.5312Z" fill="url(#paint8_linear_125_6)"/>
<path d="M50.0781 19.9062V34.1562C48.3964 35.0601 46.5983 35.7284 44.7344 36.1423V19.9062H50.0781Z" fill="url(#paint9_linear_125_6)"/>
<path d="M45.625 14.5625V19.9063H44.7344V36.1423C43.2717 36.4851 41.7815 36.6967 40.2812 36.7747V14.5625H45.625Z" fill="url(#paint10_linear_125_6)"/>
<path d="M59.2338 19.3808L57.8622 31.4844H53.6406C53.2459 31.9197 52.8105 32.3164 52.3403 32.6689L53.9167 18.7841L59.2338 19.3808Z" fill="url(#paint11_linear_125_6)"/>
<path d="M38.5 58.2031C42.435 58.2031 45.625 55.0132 45.625 51.0781C45.625 47.1431 42.435 43.9531 38.5 43.9531C34.565 43.9531 31.375 47.1431 31.375 51.0781C31.375 55.0132 34.565 58.2031 38.5 58.2031Z" fill="url(#paint12_linear_125_6)"/>
<path d="M38.5 58.2031C37.4889 58.2035 36.4894 57.9886 35.5677 57.5729C34.6461 57.1571 33.8235 56.55 33.1546 55.7918C32.4857 55.0336 31.9859 54.1417 31.6882 53.1755C31.3906 52.2092 31.3021 51.1906 31.4284 50.1875C31.641 51.9133 32.4773 53.5018 33.7798 54.6537C35.0824 55.8056 36.7612 56.4415 38.5 56.4415C40.2388 56.4415 41.9176 55.8056 43.2202 54.6537C44.5227 53.5018 45.359 51.9133 45.5716 50.1875C45.698 51.1906 45.6094 52.2092 45.3118 53.1755C45.0141 54.1417 44.5143 55.0336 43.8454 55.7918C43.1765 56.55 42.3539 57.1571 41.4323 57.5729C40.5106 57.9886 39.5111 58.2035 38.5 58.2031Z" fill="#F6B756"/>
<path d="M60.5519 30.9055C60.2313 30.5314 59.9552 30.5938 58.8597 30.5938C60.2224 18.5525 60.258 19.2383 59.9285 18.8286C59.5989 18.4189 59.6969 18.5347 55.4219 18.0538V13.6719C55.4219 13.4357 55.3281 13.2091 55.161 13.0421C54.994 12.8751 54.7675 12.7812 54.5313 12.7812H49.1875C48.9513 12.7812 48.7248 12.8751 48.5577 13.0421C48.3907 13.2091 48.2969 13.4357 48.2969 13.6719V19.0156H46.5156V14.5625C46.5156 14.3263 46.4218 14.0998 46.2548 13.9327C46.0878 13.7657 45.8612 13.6719 45.625 13.6719H40.2813C40.0451 13.6719 39.8185 13.7657 39.6515 13.9327C39.4845 14.0998 39.3906 14.3263 39.3906 14.5625V21.6875H38.5V11.8906C38.5 11.6544 38.4062 11.4279 38.2392 11.2609C38.0721 11.0938 37.8456 11 37.6094 11H32.2656C32.0294 11 31.8029 11.0938 31.6359 11.2609C31.4688 11.4279 31.375 11.6544 31.375 11.8906V14.5625H27.8125V11.8906C27.8125 11.6544 27.7187 11.4279 27.5517 11.2609C27.3846 11.0938 27.1581 11 26.9219 11H21.5781C21.3419 11 21.1154 11.0938 20.9484 11.2609C20.7813 11.4279 20.6875 11.6544 20.6875 11.8906V19.0156L17.7484 19.3273C17.6321 19.3396 17.5192 19.3746 17.4164 19.4305C17.3135 19.4863 17.2227 19.5619 17.1491 19.6529C17.0755 19.7439 17.0205 19.8485 16.9873 19.9607C16.9542 20.073 16.9434 20.1906 16.9558 20.307L18.0156 30.5938H17.125C16.995 30.5921 16.8663 30.6189 16.7477 30.6723C16.6292 30.7256 16.5238 30.8043 16.439 30.9028C16.3541 31.0012 16.2918 31.1171 16.2564 31.2422C16.2211 31.3673 16.2136 31.4986 16.2344 31.6269C21.9611 66.8689 21.5781 64.767 21.8364 65.0698C24.6241 67.8486 24.722 68.187 25.3989 67.9555C32.2567 65.6666 44.6453 65.6488 51.5477 67.9555C51.7016 68.0038 51.8657 68.0095 52.0226 67.9719C52.1794 67.9342 52.3231 67.8547 52.4383 67.7417C55.4219 64.8383 55.3506 64.9719 55.4219 64.58C61.2109 28.8125 60.9438 31.3686 60.5519 30.9055ZM57.0695 30.5938C52.9727 30.5938 53.7386 30.5938 53.507 30.5938L54.7005 19.7727L58.263 20.1645L57.0695 30.5938ZM50.0781 14.5625H53.6406V17.9469C52.8658 18.1963 53.1419 17.6975 51.5031 32.1969L50.9688 32.5709V19.9062C50.9688 19.67 50.8749 19.4435 50.7079 19.2765C50.5409 19.1095 50.3143 19.0156 50.0781 19.0156V14.5625ZM45.625 20.7969H49.1875V33.5952C48.0472 34.1711 46.8542 34.6364 45.625 34.9845V20.7969ZM41.1719 15.4531H44.7344V19.0156C44.4982 19.0156 44.2716 19.1095 44.1046 19.2765C43.9376 19.4435 43.8438 19.67 43.8438 19.9062V35.4209C42.9607 35.5966 42.0688 35.7244 41.1719 35.8039V15.4531ZM39.3906 35.9375C38.2021 35.9924 37.0112 35.9567 35.8281 35.8306V23.4688H39.3906V35.9375ZM34.9375 20.7969V21.6875C34.7013 21.6875 34.4748 21.7813 34.3077 21.9484C34.1407 22.1154 34.0469 22.3419 34.0469 22.5781V35.5723C33.1453 35.4298 32.2531 35.2335 31.375 34.9845V20.7969H34.9375ZM33.1563 12.7812H36.7188V19.9062C36.7188 19.67 36.6249 19.4435 36.4579 19.2765C36.2909 19.1095 36.0643 19.0156 35.8281 19.0156H33.1563V12.7812ZM31.375 16.3438V19.0156H30.4844C30.2482 19.0156 30.0216 19.1095 29.8546 19.2765C29.6876 19.4435 29.5938 19.67 29.5938 19.9062V34.3967C28.9866 34.1605 28.392 33.893 27.8125 33.5952V16.3438H31.375ZM22.4688 12.7812H26.0313V32.562C25.7908 32.3928 25.5681 32.2414 25.3722 32.09C23.8759 18.0538 24.4727 18.6505 22.4688 18.8642V12.7812ZM18.8172 21.0373L22.3797 20.6633L23.4217 30.5938C23.1278 30.5938 23.8136 30.5938 19.8592 30.5938L18.8172 21.0373ZM53.6941 64.01L51.61 66.103C43.0101 63.8897 33.9899 63.8897 25.39 66.103L23.3059 64.01L18.167 32.375H22.9675C29.9589 39.5 47.0144 39.5 54.0325 32.375H58.833L53.6941 64.01Z" fill="#231F20"/>
<path d="M38.5 43.0625C36.9147 43.0625 35.3649 43.5326 34.0468 44.4134C32.7286 45.2941 31.7012 46.546 31.0945 48.0107C30.4878 49.4753 30.3291 51.087 30.6384 52.6419C30.9477 54.1968 31.7111 55.625 32.8321 56.746C33.9531 57.867 35.3814 58.6304 36.9362 58.9397C38.4911 59.249 40.1028 59.0903 41.5675 58.4836C43.0321 57.8769 44.284 56.8495 45.1648 55.5314C46.0455 54.2132 46.5156 52.6635 46.5156 51.0781C46.5156 48.9522 45.6711 46.9134 44.1679 45.4102C42.6647 43.907 40.6259 43.0625 38.5 43.0625V43.0625ZM38.5 57.3125C37.267 57.3125 36.0616 56.9469 35.0364 56.2618C34.0111 55.5768 33.2121 54.6031 32.7402 53.4639C32.2683 52.3247 32.1449 51.0712 32.3854 49.8619C32.626 48.6525 33.2197 47.5416 34.0916 46.6698C34.9635 45.7979 36.0744 45.2041 37.2837 44.9635C38.4931 44.723 39.7466 44.8464 40.8858 45.3183C42.025 45.7902 42.9987 46.5893 43.6837 47.6145C44.3687 48.6397 44.7344 49.8451 44.7344 51.0781C44.7344 52.7316 44.0775 54.3173 42.9084 55.4865C41.7392 56.6557 40.1535 57.3125 38.5 57.3125Z" fill="#231F20"/>
</g>
<defs>
<linearGradient id="paint0_linear_125_6" x1="38.5" y1="67.1094" x2="38.5" y2="31.4844" gradientUnits="userSpaceOnUse">
<stop stop-color="#DA5466"/>
<stop offset="1" stop-color="#F4929C"/>
</linearGradient>
<linearGradient id="paint1_linear_125_6" x1="38.5" y1="67.1094" x2="38.5" y2="31.4844" gradientUnits="userSpaceOnUse">
<stop stop-color="#DA5466"/>
<stop offset="1" stop-color="#F4929C"/>
</linearGradient>
<linearGradient id="paint2_linear_125_6" x1="34.9375" y1="29.7031" x2="40.2813" y2="29.7031" gradientUnits="userSpaceOnUse">
<stop stop-color="#E9A254"/>
<stop offset="1" stop-color="#F4BB79"/>
</linearGradient>
<linearGradient id="paint3_linear_125_6" x1="17.8375" y1="26.1228" x2="24.5261" y2="26.1228" gradientUnits="userSpaceOnUse">
<stop stop-color="#E9A254"/>
<stop offset="1" stop-color="#F4BB79"/>
</linearGradient>
<linearGradient id="paint4_linear_125_6" x1="30.4844" y1="28.2603" x2="35.8281" y2="28.2603" gradientUnits="userSpaceOnUse">
<stop stop-color="#E9A254"/>
<stop offset="1" stop-color="#F4BB79"/>
</linearGradient>
<linearGradient id="paint5_linear_125_6" x1="26.9219" y1="25.5617" x2="32.2656" y2="25.5617" gradientUnits="userSpaceOnUse">
<stop stop-color="#E9A254"/>
<stop offset="1" stop-color="#F4BB79"/>
</linearGradient>
<linearGradient id="paint6_linear_125_6" x1="21.5781" y1="23.0234" x2="26.9219" y2="23.0234" gradientUnits="userSpaceOnUse">
<stop stop-color="#E9A254"/>
<stop offset="1" stop-color="#F4BB79"/>
</linearGradient>
<linearGradient id="paint7_linear_125_6" x1="32.2656" y1="17.2344" x2="37.6094" y2="17.2344" gradientUnits="userSpaceOnUse">
<stop stop-color="#E9A254"/>
<stop offset="1" stop-color="#F4BB79"/>
</linearGradient>
<linearGradient id="paint8_linear_125_6" x1="49.1875" y1="23.9141" x2="54.5312" y2="23.9141" gradientUnits="userSpaceOnUse">
<stop stop-color="#E9A254"/>
<stop offset="1" stop-color="#F4BB79"/>
</linearGradient>
<linearGradient id="paint9_linear_125_6" x1="44.7344" y1="28.0198" x2="50.0781" y2="28.0198" gradientUnits="userSpaceOnUse">
<stop stop-color="#E9A254"/>
<stop offset="1" stop-color="#F4BB79"/>
</linearGradient>
<linearGradient id="paint10_linear_125_6" x1="40.2812" y1="25.6686" x2="45.625" y2="25.6686" gradientUnits="userSpaceOnUse">
<stop stop-color="#E9A254"/>
<stop offset="1" stop-color="#F4BB79"/>
</linearGradient>
<linearGradient id="paint11_linear_125_6" x1="52.3403" y1="25.7309" x2="59.2338" y2="25.7309" gradientUnits="userSpaceOnUse">
<stop stop-color="#E9A254"/>
<stop offset="1" stop-color="#F4BB79"/>
</linearGradient>
<linearGradient id="paint12_linear_125_6" x1="31.375" y1="51.0781" x2="45.625" y2="51.0781" gradientUnits="userSpaceOnUse">
<stop stop-color="#FBCC88"/>
<stop offset="1" stop-color="#FFE5C3"/>
</linearGradient>
<clipPath id="clip0_125_6">
<rect width="57" height="57" fill="white" transform="translate(10 11)"/>
</clipPath>
</defs>
</svg>
