<svg width="76" height="76" viewBox="0 0 76 76" fill="none" xmlns="http://www.w3.org/2000/svg">
<circle cx="38" cy="38" r="38" fill="#E4E4E4"/>
<g clip-path="url(#clip0_125_3)">
<path d="M69 50V51L52 54L50 56H26L24 54L7 51V50H69Z" fill="url(#paint0_linear_125_3)"/>
<path d="M52 54L50 56H26L24 54H52Z" fill="#C7CDD8"/>
<path d="M55.81 28H54C53.2044 28 52.4413 28.3161 51.8787 28.8787C51.3161 29.4413 51 30.2044 51 31V43C51 43.7956 50.6839 44.5587 50.1213 45.1213C49.5587 45.6839 48.7956 46 48 46H18V50H55V34.58C55.0027 34.1204 55.1486 33.673 55.4175 33.3002C55.6863 32.9274 56.0647 32.6477 56.5 32.5C58.84 31.72 58.35 28 55.81 28Z" fill="url(#paint1_linear_125_3)"/>
<path d="M20 31H51V43C51 43.7956 50.6839 44.5587 50.1213 45.1213C49.5587 45.6839 48.7956 46 48 46H18V33C18 32.4696 18.2107 31.9609 18.5858 31.5858C18.9609 31.2107 19.4696 31 20 31Z" fill="url(#paint2_linear_125_3)"/>
<path d="M51 41V43C51 43.7956 50.6839 44.5587 50.1213 45.1213C49.5587 45.6839 48.7956 46 48 46H18V44H48C48.7956 44 49.5587 43.6839 50.1213 43.1213C50.6839 42.5587 51 41.7956 51 41Z" fill="#F6B756"/>
<path d="M20 31H51V35H18V33C18 32.4696 18.2107 31.9609 18.5858 31.5858C18.9609 31.2107 19.4696 31 20 31Z" fill="url(#paint3_linear_125_3)"/>
<path d="M38 31C41.3137 31 44 28.3137 44 25C44 21.6863 41.3137 19 38 19C34.6863 19 32 21.6863 32 25C32 28.3137 34.6863 31 38 31Z" fill="url(#paint4_linear_125_3)"/>
<path d="M38 31C37.128 30.9991 36.2666 30.8082 35.4759 30.4404C34.6852 30.0727 33.9841 29.537 33.4216 28.8707C32.859 28.2043 32.4484 27.4234 32.2185 26.5822C31.9885 25.741 31.9447 24.8598 32.09 24C33.19 30.64 42.81 30.63 43.91 24C44.0554 24.8598 44.0115 25.741 43.7816 26.5822C43.5516 27.4234 43.1411 28.2043 42.5785 28.8707C42.0159 29.537 41.3149 30.0727 40.5242 30.4404C39.7334 30.8082 38.8721 30.9991 38 31V31Z" fill="#CF4055"/>
<path d="M55 48H18V50H55V48Z" fill="#CBA07A"/>
<path d="M69 49H56V34.58C56.0002 34.3293 56.0796 34.085 56.2269 33.8821C56.3741 33.6792 56.5817 33.528 56.82 33.45C60.24 32.3 59.43 27 55.82 27H54C53.1154 27.0029 52.2568 27.2989 51.5583 27.8417C50.8599 28.3845 50.3611 29.1435 50.14 30H42.89C43.784 29.122 44.4259 28.0201 44.7487 26.8093C45.0715 25.5986 45.0635 24.3233 44.7253 23.1168C44.3871 21.9102 43.7313 20.8165 42.8262 19.9499C41.9212 19.0833 40.8001 18.4755 39.58 18.19C40.5 15.64 42.91 12.12 49.18 10.98C49.4452 10.9323 49.6806 10.7811 49.8344 10.5598C49.9881 10.3385 50.0477 10.0652 50 9.8C49.9522 9.53479 49.8011 9.2994 49.5798 9.14562C49.3585 8.99184 49.0852 8.93226 48.82 8.98C41.28 10.35 38.55 14.9 37.56 17.98C36.2075 18.0642 34.9085 18.5392 33.8207 19.3474C32.7329 20.1555 31.903 21.262 31.4319 22.5326C30.9607 23.8032 30.8684 25.1832 31.1663 26.5052C31.4642 27.8272 32.1394 29.0343 33.11 29.98H20C19.2043 29.98 18.4413 30.2961 17.8787 30.8587C17.3161 31.4213 17 32.1844 17 32.98V49H6.99998C6.73477 49 6.48041 49.1054 6.29288 49.2929C6.10534 49.4804 5.99998 49.7348 5.99998 50V51C5.99652 51.2382 6.07823 51.4699 6.2304 51.6532C6.38256 51.8365 6.59519 51.9595 6.82998 52L23.52 55L25.29 56.78C25.71 57.2 25.03 57.07 38 57.07C50.76 57.07 50.29 57.2 50.71 56.78L52.48 55L69.17 52C70.17 51.84 70 50.92 70 50C70 49.7348 69.8946 49.4804 69.7071 49.2929C69.5196 49.1054 69.2652 49 69 49ZM19 36H50V43C50 43.5304 49.7893 44.0391 49.4142 44.4142C49.0391 44.7893 48.5304 45 48 45H19V36ZM33 25C33.0011 23.8343 33.4094 22.7057 34.1544 21.8091C34.8994 20.9126 35.9342 20.3045 37.08 20.09C37 20.64 37 21 37 21C37 21.2652 37.1053 21.5196 37.2929 21.7071C37.4804 21.8946 37.7348 22 38 22C38.2652 22 38.5196 21.8946 38.7071 21.7071C38.8946 21.5196 39 21.2652 39 21C39.0093 20.7054 39.036 20.4115 39.08 20.12C40.0004 20.3236 40.8445 20.7833 41.515 21.446C42.1854 22.1087 42.6548 22.9474 42.8691 23.8654C43.0834 24.7834 43.0338 25.7433 42.726 26.6343C42.4183 27.5254 41.8649 28.3112 41.1297 28.9013C40.3945 29.4914 39.5075 29.8616 38.571 29.9693C37.6345 30.0769 36.6867 29.9176 35.8368 29.5098C34.9869 29.102 34.2696 28.4622 33.7677 27.6642C33.2657 26.8663 32.9996 25.9427 33 25V25ZM19 33C19 32.7348 19.1053 32.4804 19.2929 32.2929C19.4804 32.1054 19.7348 32 20 32H50V34H19V33ZM19 47H48C49.0609 47 50.0783 46.5786 50.8284 45.8284C51.5786 45.0783 52 44.0609 52 43V31C52 30.4696 52.2107 29.9609 52.5858 29.5858C52.9608 29.2107 53.4696 29 54 29C55.69 29 57 28.7 57 30.42C56.9998 30.6707 56.9204 30.915 56.7731 31.1179C56.6259 31.3208 56.4183 31.472 56.18 31.55C55.5501 31.7618 55.0018 32.1644 54.6111 32.702C54.2205 33.2396 54.0069 33.8855 54 34.55V49H19V47ZM51.83 53C51.38 53.07 51.29 53.27 49.59 55H26.41C24.76 53.35 24.62 53.09 24.17 53L12.75 51H63.25L51.83 53Z" fill="#231F20"/>
<path d="M24 41C23.7348 41 23.4804 41.1054 23.2929 41.2929C23.1054 41.4804 23 41.7348 23 42C23 42.2652 23.1054 42.5196 23.2929 42.7071C23.4804 42.8946 23.7348 43 24 43C24.2652 43 24.5196 42.8946 24.7071 42.7071C24.8946 42.5196 25 42.2652 25 42C25 41.7348 24.8946 41.4804 24.7071 41.2929C24.5196 41.1054 24.2652 41 24 41Z" fill="#231F20"/>
<path d="M29 38C28.7348 38 28.4804 38.1054 28.2929 38.2929C28.1054 38.4804 28 38.7348 28 39C28 39.2652 28.1054 39.5196 28.2929 39.7071C28.4804 39.8946 28.7348 40 29 40C29.2652 40 29.5196 39.8946 29.7071 39.7071C29.8946 39.5196 30 39.2652 30 39C30 38.7348 29.8946 38.4804 29.7071 38.2929C29.5196 38.1054 29.2652 38 29 38Z" fill="#231F20"/>
<path d="M34 41C33.7348 41 33.4804 41.1054 33.2929 41.2929C33.1054 41.4804 33 41.7348 33 42C33 42.2652 33.1054 42.5196 33.2929 42.7071C33.4804 42.8946 33.7348 43 34 43C34.2652 43 34.5196 42.8946 34.7071 42.7071C34.8946 42.5196 35 42.2652 35 42C35 41.7348 34.8946 41.4804 34.7071 41.2929C34.5196 41.1054 34.2652 41 34 41Z" fill="#231F20"/>
<path d="M39 38C38.7348 38 38.4804 38.1054 38.2929 38.2929C38.1054 38.4804 38 38.7348 38 39C38 39.2652 38.1054 39.5196 38.2929 39.7071C38.4804 39.8946 38.7348 40 39 40C39.2652 40 39.5196 39.8946 39.7071 39.7071C39.8946 39.5196 40 39.2652 40 39C40 38.7348 39.8946 38.4804 39.7071 38.2929C39.5196 38.1054 39.2652 38 39 38Z" fill="#231F20"/>
<path d="M44 41C43.7348 41 43.4804 41.1054 43.2929 41.2929C43.1054 41.4804 43 41.7348 43 42C43 42.2652 43.1054 42.5196 43.2929 42.7071C43.4804 42.8946 43.7348 43 44 43C44.2652 43 44.5196 42.8946 44.7071 42.7071C44.8946 42.5196 45 42.2652 45 42C45 41.7348 44.8946 41.4804 44.7071 41.2929C44.5196 41.1054 44.2652 41 44 41Z" fill="#231F20"/>
</g>
<defs>
<linearGradient id="paint0_linear_125_3" x1="38" y1="56" x2="38" y2="50" gradientUnits="userSpaceOnUse">
<stop stop-color="#D4D8E1"/>
<stop offset="1" stop-color="#F3F4F5"/>
</linearGradient>
<linearGradient id="paint1_linear_125_3" x1="38.01" y1="50" x2="38.01" y2="28" gradientUnits="userSpaceOnUse">
<stop stop-color="#D1A788"/>
<stop offset="1" stop-color="#F2D3B8"/>
</linearGradient>
<linearGradient id="paint2_linear_125_3" x1="34.5" y1="46" x2="34.5" y2="31" gradientUnits="userSpaceOnUse">
<stop stop-color="#FBCC88"/>
<stop offset="1" stop-color="#FFE5C3"/>
</linearGradient>
<linearGradient id="paint3_linear_125_3" x1="18" y1="33" x2="51" y2="33" gradientUnits="userSpaceOnUse">
<stop stop-color="#E9A254"/>
<stop offset="1" stop-color="#F4BB79"/>
</linearGradient>
<linearGradient id="paint4_linear_125_3" x1="38" y1="31" x2="38" y2="19" gradientUnits="userSpaceOnUse">
<stop stop-color="#DA5466"/>
<stop offset="1" stop-color="#F4929C"/>
</linearGradient>
<clipPath id="clip0_125_3">
<rect width="64" height="64" fill="white" transform="translate(6 1)"/>
</clipPath>
</defs>
</svg>
